<svg width="16" height="16" viewBox="0 0 16 16" fill="none" xmlns="http://www.w3.org/2000/svg">
<g opacity="0.7">
<path d="M5.45122 10.7845L7.64647 8.58921L8.00002 8.23565L8.35357 8.58921L10.5488 10.7845C10.6139 10.8495 10.7195 10.8495 10.7845 10.7845C10.8496 10.7194 10.8496 10.6139 10.7845 10.5488L8.58927 8.35351L8.23571 7.99996L8.58927 7.64641L10.7845 5.45116C10.8496 5.38607 10.8496 5.28052 10.7845 5.21543C10.7195 5.15036 10.6139 5.15036 10.5488 5.21543L10.5488 5.21544L8.35357 7.41071L8.00002 7.76427L7.64647 7.41071L5.45121 5.21544C5.45121 5.21544 5.45121 5.21544 5.45121 5.21544C5.38612 5.15036 5.2806 5.15036 5.2155 5.21543C5.2155 5.21544 5.2155 5.21544 5.2155 5.21544M5.45122 10.7845L5.2155 5.21544M5.45122 10.7845C5.38613 10.8495 5.28058 10.8495 5.21549 10.7845C5.15042 10.7194 5.15042 10.6139 5.21549 10.5488L5.2155 10.5488L7.41077 8.35351L7.76433 7.99996L7.41077 7.6464L5.2155 5.45115M5.45122 10.7845L5.2155 5.45115M5.2155 5.21544C5.15042 5.28053 5.15042 5.38606 5.2155 5.45115M5.2155 5.21544L5.2155 5.45115M5.2155 5.45115C5.2155 5.45115 5.2155 5.45115 5.2155 5.45115M5.2155 5.45115L5.2155 5.45115" fill="black" stroke="#2C2C2C"/>
</g>
</svg>
